<svg width="24" height="24" viewBox="0 0 24 24" fill="none" xmlns="http://www.w3.org/2000/svg">
<path d="M2.74977 17H15.2498C15.4398 17.0001 15.6227 17.0722 15.7616 17.202C15.9004 17.3317 15.9848 17.5093 15.9978 17.6989C16.0107 17.8885 15.9513 18.0759 15.8313 18.2233C15.7114 18.3707 15.54 18.4671 15.3518 18.493L15.2498 18.5H2.74977C2.55975 18.4999 2.37683 18.4278 2.23798 18.298C2.09913 18.1683 2.0147 17.9907 2.00175 17.8011C1.98879 17.6115 2.04829 17.4241 2.1682 17.2767C2.28812 17.1293 2.45952 17.0329 2.64777 17.007L2.74977 17H15.2498H2.74977ZM2.74977 13H21.2498C21.4398 13.0001 21.6227 13.0722 21.7616 13.202C21.9004 13.3317 21.9848 13.5093 21.9978 13.6989C22.0107 13.8885 21.9513 14.0759 21.8313 14.2233C21.7114 14.3707 21.54 14.4671 21.3518 14.493L21.2498 14.5H2.74977C2.55975 14.4999 2.37683 14.4278 2.23798 14.298C2.09913 14.1683 2.0147 13.9907 2.00175 13.8011C1.98879 13.6115 2.04829 13.4241 2.1682 13.2767C2.28812 13.1293 2.45952 13.0329 2.64777 13.007L2.74977 13H21.2498H2.74977ZM2.74977 9H21.2498C21.4398 9.00006 21.6227 9.07224 21.7616 9.20197C21.9004 9.3317 21.9848 9.5093 21.9978 9.69888C22.0107 9.88846 21.9513 10.0759 21.8313 10.2233C21.7114 10.3707 21.54 10.4671 21.3518 10.493L21.2498 10.5H2.74977C2.55975 10.4999 2.37683 10.4278 2.23798 10.298C2.09913 10.1683 2.0147 9.9907 2.00175 9.80112C1.98879 9.61154 2.04829 9.42411 2.1682 9.2767C2.28812 9.12929 2.45952 9.0329 2.64777 9.007L2.74977 9H21.2498H2.74977ZM2.74977 5H21.2498C21.4398 5.00006 21.6227 5.07224 21.7616 5.20197C21.9004 5.3317 21.9848 5.5093 21.9978 5.69888C22.0107 5.88846 21.9513 6.07589 21.8313 6.2233C21.7114 6.37071 21.54 6.4671 21.3518 6.493L21.2498 6.5H2.74977C2.55975 6.49994 2.37683 6.42776 2.23798 6.29803C2.09913 6.1683 2.0147 5.9907 2.00175 5.80112C1.98879 5.61154 2.04829 5.42411 2.1682 5.2767C2.28812 5.12929 2.45952 5.0329 2.64777 5.007L2.74977 5H21.2498H2.74977Z" fill="#464646"/>
</svg>
