<svg width="28" height="28" viewBox="0 0 28 28" fill="none" xmlns="http://www.w3.org/2000/svg">
<path d="M23.6251 14.665V13.3262L25.3051 11.8562C25.6148 11.5833 25.818 11.2096 25.8789 10.8013C25.9397 10.393 25.8542 9.97638 25.6376 9.62499L23.5726 6.12499C23.4192 5.85922 23.1985 5.63847 22.9328 5.48489C22.6671 5.33132 22.3657 5.2503 22.0588 5.24999C21.8687 5.24853 21.6795 5.27809 21.4988 5.33749L19.3726 6.05499C19.0055 5.81105 18.6226 5.59181 18.2263 5.39874L17.7801 3.19374C17.7001 2.79089 17.4809 2.42902 17.161 2.17148C16.8411 1.91393 16.4407 1.77712 16.0301 1.78499H11.9351C11.5245 1.77712 11.1241 1.91393 10.8042 2.17148C10.4843 2.42902 10.2651 2.79089 10.1851 3.19374L9.73885 5.39874C9.33979 5.59177 8.95395 5.81099 8.58385 6.05499L6.50135 5.30249C6.31873 5.25491 6.12963 5.23718 5.94135 5.24999C5.63446 5.2503 5.33306 5.33132 5.06737 5.48489C4.80168 5.63847 4.58104 5.85922 4.4276 6.12499L2.3626 9.62499C2.15836 9.97585 2.08247 10.3868 2.14792 10.7875C2.21336 11.1882 2.41608 11.5536 2.72135 11.8212L4.3751 13.335V14.6737L2.72135 16.1437C2.40746 16.4132 2.1992 16.7852 2.13352 17.1937C2.06785 17.6022 2.14901 18.0207 2.3626 18.375L4.4276 21.875C4.58104 22.1408 4.80168 22.3615 5.06737 22.5151C5.33306 22.6687 5.63446 22.7497 5.94135 22.75C6.13153 22.7514 6.32068 22.7219 6.50135 22.6625L8.6276 21.945C8.9947 22.1889 9.37763 22.4082 9.77385 22.6012L10.2201 24.8062C10.3001 25.2091 10.5193 25.571 10.8392 25.8285C11.1591 26.086 11.5595 26.2229 11.9701 26.215H16.1001C16.5107 26.2229 16.9111 26.086 17.231 25.8285C17.5509 25.571 17.7701 25.2091 17.8501 24.8062L18.2963 22.6012C18.6954 22.4082 19.0813 22.189 19.4513 21.945L21.5688 22.6625C21.7495 22.7219 21.9387 22.7514 22.1289 22.75C22.4357 22.7497 22.7371 22.6687 23.0028 22.5151C23.2685 22.3615 23.4892 22.1408 23.6426 21.875L25.6376 18.375C25.8418 18.0241 25.9177 17.6132 25.8523 17.2125C25.7868 16.8118 25.5841 16.4464 25.2788 16.1787L23.6251 14.665ZM22.0588 21L19.0576 19.985C18.355 20.5801 17.5521 21.0453 16.6863 21.3587L16.0651 24.5H11.9351L11.3139 21.3937C10.455 21.0714 9.65635 20.607 8.95135 20.02L5.94135 21L3.87635 17.5L6.25635 15.4C6.09456 14.4942 6.09456 13.567 6.25635 12.6612L3.87635 10.5L5.94135 6.99999L8.9426 8.01499C9.64517 7.4199 10.4481 6.95471 11.3139 6.64124L11.9351 3.49999H16.0651L16.6863 6.60624C17.5452 6.92861 18.3438 7.39299 19.0488 7.97999L22.0588 6.99999L24.1238 10.5L21.7439 12.6C21.9056 13.5057 21.9056 14.433 21.7439 15.3387L24.1238 17.5L22.0588 21Z" fill="white"/>
<path d="M14 19.25C12.9616 19.25 11.9466 18.9421 11.0833 18.3652C10.2199 17.7883 9.54699 16.9684 9.14963 16.0091C8.75227 15.0498 8.64831 13.9942 8.85088 12.9758C9.05345 11.9574 9.55347 11.0219 10.2877 10.2877C11.0219 9.55347 11.9574 9.05345 12.9758 8.85088C13.9942 8.64831 15.0498 8.75227 16.0091 9.14963C16.9684 9.54699 17.7883 10.2199 18.3652 11.0833C18.9421 11.9466 19.25 12.9616 19.25 14C19.257 14.6914 19.126 15.3772 18.8647 16.0174C18.6033 16.6575 18.2169 17.239 17.728 17.728C17.239 18.2169 16.6575 18.6033 16.0174 18.8647C15.3772 19.126 14.6914 19.257 14 19.25ZM14 10.5C13.5374 10.4892 13.0775 10.5724 12.648 10.7445C12.2185 10.9165 11.8283 11.174 11.5011 11.5011C11.174 11.8283 10.9165 12.2185 10.7445 12.648C10.5724 13.0775 10.4892 13.5374 10.5 14C10.4892 14.4626 10.5724 14.9225 10.7445 15.352C10.9165 15.7815 11.174 16.1717 11.5011 16.4989C11.8283 16.826 12.2185 17.0835 12.648 17.2555C13.0775 17.4276 13.5374 17.5108 14 17.5C14.4626 17.5108 14.9225 17.4276 15.352 17.2555C15.7815 17.0835 16.1717 16.826 16.4989 16.4989C16.826 16.1717 17.0835 15.7815 17.2555 15.352C17.4276 14.9225 17.5108 14.4626 17.5 14C17.5108 13.5374 17.4276 13.0775 17.2555 12.648C17.0835 12.2185 16.826 11.8283 16.4989 11.5011C16.1717 11.174 15.7815 10.9165 15.352 10.7445C14.9225 10.5724 14.4626 10.4892 14 10.5Z" fill="white"/>
</svg>
