<svg width="28" height="28" viewBox="0 0 28 28" fill="none" xmlns="http://www.w3.org/2000/svg">
<g clip-path="url(#clip0_501_19824)">
<path d="M14 16.5C15.3807 16.5 16.5 15.3807 16.5 14C16.5 12.6193 15.3807 11.5 14 11.5C12.6193 11.5 11.5 12.6193 11.5 14C11.5 15.3807 12.6193 16.5 14 16.5Z" stroke="white" stroke-width="2" stroke-linecap="round" stroke-linejoin="round"/>
<path d="M20.1673 16.4999C20.0564 16.7513 20.0233 17.0301 20.0723 17.3004C20.1213 17.5707 20.2502 17.8202 20.4423 18.0166L20.4923 18.0666C20.6473 18.2214 20.7702 18.4052 20.8541 18.6075C20.938 18.8098 20.9811 19.0267 20.9811 19.2458C20.9811 19.4648 20.938 19.6817 20.8541 19.884C20.7702 20.0863 20.6473 20.2701 20.4923 20.4249C20.3375 20.5799 20.1537 20.7028 19.9514 20.7867C19.7491 20.8706 19.5322 20.9137 19.3131 20.9137C19.0941 20.9137 18.8772 20.8706 18.6749 20.7867C18.4726 20.7028 18.2888 20.5799 18.134 20.4249L18.084 20.3749C17.8876 20.1828 17.6381 20.0539 17.3678 20.0049C17.0975 19.9559 16.8187 19.989 16.5673 20.0999C16.3208 20.2056 16.1106 20.381 15.9626 20.6045C15.8145 20.8281 15.7351 21.0901 15.734 21.3583V21.4999C15.734 21.9419 15.5584 22.3659 15.2458 22.6784C14.9333 22.991 14.5093 23.1666 14.0673 23.1666C13.6253 23.1666 13.2014 22.991 12.8888 22.6784C12.5762 22.3659 12.4007 21.9419 12.4007 21.4999V21.4249C12.3942 21.1491 12.3049 20.8816 12.1444 20.6572C11.9839 20.4328 11.7596 20.2618 11.5007 20.1666C11.2493 20.0557 10.9705 20.0226 10.7002 20.0716C10.4298 20.1206 10.1804 20.2495 9.98398 20.4416L9.93398 20.4916C9.7792 20.6465 9.59538 20.7695 9.39305 20.8533C9.19072 20.9372 8.97384 20.9804 8.75482 20.9804C8.53579 20.9804 8.31891 20.9372 8.11658 20.8533C7.91425 20.7695 7.73044 20.6465 7.57565 20.4916C7.42069 20.3368 7.29776 20.153 7.21388 19.9507C7.13001 19.7483 7.08684 19.5314 7.08684 19.3124C7.08684 19.0934 7.13001 18.8765 7.21388 18.6742C7.29776 18.4719 7.42069 18.288 7.57565 18.1332L7.62565 18.0833C7.81776 17.8869 7.94664 17.6374 7.99565 17.3671C8.04467 17.0967 8.01158 16.8179 7.90065 16.5666C7.79501 16.3201 7.61961 16.1099 7.39604 15.9618C7.17246 15.8138 6.91047 15.7343 6.64232 15.7333H6.50065C6.05862 15.7333 5.6347 15.5577 5.32214 15.2451C5.00958 14.9325 4.83398 14.5086 4.83398 14.0666C4.83398 13.6246 5.00958 13.2006 5.32214 12.8881C5.6347 12.5755 6.05862 12.3999 6.50065 12.3999H6.57565C6.85148 12.3935 7.11899 12.3042 7.3434 12.1437C7.56781 11.9832 7.73875 11.7589 7.83398 11.4999C7.94491 11.2486 7.978 10.9698 7.92899 10.6994C7.87997 10.4291 7.7511 10.1797 7.55898 9.98325L7.50898 9.93325C7.35402 9.77846 7.23109 9.59465 7.14722 9.39232C7.06334 9.18999 7.02017 8.97311 7.02017 8.75408C7.02017 8.53506 7.06334 8.31818 7.14722 8.11585C7.23109 7.91352 7.35402 7.72971 7.50898 7.57492C7.66377 7.41996 7.84759 7.29703 8.04992 7.21315C8.25225 7.12928 8.46912 7.08611 8.68815 7.08611C8.90718 7.08611 9.12405 7.12928 9.32638 7.21315C9.52871 7.29703 9.71253 7.41996 9.86732 7.57492L9.91732 7.62492C10.1137 7.81703 10.3632 7.94591 10.6335 7.99492C10.9038 8.04394 11.1826 8.01085 11.434 7.89992H11.5007C11.7471 7.79428 11.9573 7.61888 12.1054 7.39531C12.2535 7.17173 12.3329 6.90974 12.334 6.64159V6.49992C12.334 6.05789 12.5096 5.63397 12.8221 5.32141C13.1347 5.00885 13.5586 4.83325 14.0007 4.83325C14.4427 4.83325 14.8666 5.00885 15.1792 5.32141C15.4917 5.63397 15.6673 6.05789 15.6673 6.49992V6.57492C15.6684 6.84307 15.7478 7.10506 15.8959 7.32864C16.044 7.55221 16.2542 7.72762 16.5006 7.83325C16.752 7.94418 17.0308 7.97727 17.3011 7.92826C17.5715 7.87924 17.8209 7.75037 18.0173 7.55825L18.0673 7.50825C18.2221 7.35329 18.4059 7.23036 18.6082 7.14649C18.8106 7.06261 19.0275 7.01944 19.2465 7.01944C19.4655 7.01944 19.6824 7.06261 19.8847 7.14649C20.087 7.23036 20.2709 7.35329 20.4256 7.50825C20.5806 7.66304 20.7035 7.84685 20.7874 8.04918C20.8713 8.25151 20.9145 8.46839 20.9145 8.68742C20.9145 8.90644 20.8713 9.12332 20.7874 9.32565C20.7035 9.52798 20.5806 9.7118 20.4256 9.86658L20.3756 9.91658C20.1835 10.113 20.0547 10.3624 20.0056 10.6328C19.9566 10.9031 19.9897 11.1819 20.1006 11.4333V11.4999C20.2063 11.7464 20.3817 11.9566 20.6053 12.1047C20.8288 12.2527 21.0908 12.3322 21.359 12.3333H21.5006C21.9427 12.3333 22.3666 12.5088 22.6792 12.8214C22.9917 13.134 23.1673 13.5579 23.1673 13.9999C23.1673 14.4419 22.9917 14.8659 22.6792 15.1784C22.3666 15.491 21.9427 15.6666 21.5006 15.6666H21.4256C21.1575 15.6677 20.8955 15.7471 20.6719 15.8952C20.4484 16.0432 20.273 16.2534 20.1673 16.4999V16.4999Z" stroke="white" stroke-width="2" stroke-linecap="round" stroke-linejoin="round"/>
</g>
<defs>
<clipPath id="clip0_501_19824">
<rect width="20" height="20" fill="white" transform="translate(4 4)"/>
</clipPath>
</defs>
</svg>
